<?xml version="1.0" encoding="UTF-8"?>
<!DOCTYPE svg PUBLIC "-//W3C//DTD SVG 1.0//EN" "http://www.w3.org/TR/2001/REC-SVG-20010904/DTD/svg10.dtd">
<!-- Creator: CorelDRAW 2018 (64 Bit Versão de avaliação) -->
<svg xmlns="http://www.w3.org/2000/svg" xml:space="preserve" width="36px" height="25px" version="1.0" shape-rendering="geometricPrecision" text-rendering="geometricPrecision" image-rendering="optimizeQuality" fill-rule="evenodd" clip-rule="evenodd"
viewBox="0 0 7.05 4.83"
 xmlns:xlink="http://www.w3.org/1999/xlink">
 <g id="Camada_x0020_1">
  <metadata id="CorelCorpID_0Corel-Layer"/>
  <path fill="black" d="M2.66 3.66c-0.01,0 -0.01,0 -0.01,-0.01 0,0 0,0 -0.01,-0.01 -0.01,-0.01 -0.01,-0.02 -0.02,-0.03 -0.05,-0.07 -0.11,-0.12 -0.16,-0.17 -0.01,-0.01 -0.02,-0.02 -0.03,-0.03l-0.36 -0.35c-0.02,-0.01 -0.03,-0.03 -0.05,-0.05 -0.07,-0.07 -0.15,-0.14 -0.22,-0.21 -0.1,-0.11 -0.22,-0.23 -0.32,-0.33l-0.13 -0.14c-0.01,-0.01 -0.02,-0.02 -0.03,-0.03 -0.07,-0.08 -0.14,-0.15 -0.21,-0.22l-0.06 -0.06c-0.03,-0.03 -0.07,-0.07 -0.1,-0.11 -0.02,-0.01 -0.04,-0.03 -0.06,-0.05 -0.02,-0.02 -0.04,-0.03 -0.05,-0.05 -0.13,-0.12 -0.3,-0.19 -0.49,-0.15 -0.28,0.08 -0.44,0.39 -0.3,0.68 0.03,0.05 0.07,0.12 0.11,0.16 0.01,0.01 0.02,0.02 0.03,0.03l0.27 0.27c0.04,0.04 0.07,0.07 0.11,0.11l0.43 0.43c0.02,0.02 0.04,0.04 0.06,0.06 0.01,0.01 0.01,0.02 0.02,0.02 0.2,0.19 0.39,0.38 0.58,0.57l0.32 0.33c0.02,0.02 0.04,0.03 0.06,0.05l0.08 0.09c0.02,0.02 0.05,0.05 0.08,0.08 0.01,0.02 0.03,0.03 0.05,0.05 0.01,0.01 0.02,0.02 0.03,0.03 0.03,0.03 0.11,0.09 0.15,0.12 0.04,0.03 0.09,0.06 0.14,0.07 0.12,0.04 0.27,0 0.36,-0.05 0.05,-0.03 0.17,-0.12 0.21,-0.17l0.08 -0.08c0.05,-0.06 0.11,-0.11 0.16,-0.17l1.08 -1.08c0.58,-0.58 1.16,-1.16 1.74,-1.74 0.14,-0.14 0.29,-0.29 0.43,-0.43 0.11,-0.11 0.24,-0.21 0.32,-0.33 0.11,-0.16 0.13,-0.35 0.05,-0.51 -0.04,-0.07 -0.09,-0.13 -0.16,-0.17 -0.16,-0.11 -0.34,-0.1 -0.51,-0.01 -0.01,0 -0.02,0.01 -0.03,0.02 -0.03,0.02 -0.06,0.06 -0.09,0.08 -0.02,0.02 -0.03,0.03 -0.05,0.05l-0.06 0.05c-0.02,0.02 -0.03,0.04 -0.05,0.06 -0.04,0.03 -0.07,0.07 -0.11,0.1 -0.02,0.02 -0.04,0.04 -0.06,0.06 -0.01,0.02 -0.03,0.04 -0.05,0.05 -0.47,0.47 -0.94,0.94 -1.41,1.41 -0.07,0.08 -0.15,0.15 -0.22,0.22 -0.07,0.07 -0.14,0.15 -0.22,0.22l-0.86 0.87c-0.05,0.05 -0.11,0.11 -0.16,0.16l-0.06 0.06c-0.01,0.02 -0.03,0.03 -0.05,0.05 -0.01,0.01 -0.02,0.02 -0.03,0.03 -0.03,0.03 -0.12,0.09 -0.16,0.11l0 -0.01z"/>
 </g>
</svg>
