<?xml version="1.0" encoding="UTF-8"?>
<!DOCTYPE svg PUBLIC "-//W3C//DTD SVG 1.0//EN" "http://www.w3.org/TR/2001/REC-SVG-20010904/DTD/svg10.dtd">
<!-- Creator: CorelDRAW 2018 (64 Bit Versão de avaliação) -->
<svg xmlns="http://www.w3.org/2000/svg" xml:space="preserve" width="41px" height="41px" version="1.0" shape-rendering="geometricPrecision" text-rendering="geometricPrecision" image-rendering="optimizeQuality" fill-rule="evenodd" clip-rule="evenodd"
viewBox="0 0 1.94 1.94"
 xmlns:xlink="http://www.w3.org/1999/xlink">
 <g id="Camada_x0020_1">
  <metadata id="CorelCorpID_0Corel-Layer"/>
  <path fill="black" d="M0.97 0.82c-0.01,-0.02 -0.67,-0.67 -0.72,-0.73 -0.02,-0.02 -0.04,-0.04 -0.06,-0.05 -0.06,-0.08 -0.19,-0.03 -0.18,0.08 0,0.03 0.02,0.05 0.03,0.07 0.04,0.04 0.08,0.07 0.12,0.11l0.44 0.45c0.01,0.01 0.22,0.21 0.22,0.22 -0.02,0.02 -0.03,0.04 -0.05,0.06l-0.62 0.61c-0.03,0.03 -0.12,0.12 -0.14,0.15 -0.04,0.07 0.02,0.16 0.11,0.15 0.04,0 0.05,-0.02 0.07,-0.04l0.67 -0.67c0.02,-0.02 0.1,-0.1 0.12,-0.11 0.01,0.02 0.03,0.04 0.05,0.06l0.73 0.72c0.09,0.1 0.22,-0.01 0.17,-0.12 -0.01,-0.02 -0.01,-0.02 -0.03,-0.03l-0.66 -0.67c-0.04,-0.03 -0.08,-0.08 -0.11,-0.11 0,-0.01 0.71,-0.71 0.78,-0.78 0.01,-0.02 0.03,-0.04 0.03,-0.08 0.01,-0.09 -0.11,-0.15 -0.19,-0.07 -0.08,0.08 -0.7,0.7 -0.72,0.72 -0.01,0.02 -0.05,0.05 -0.06,0.06z"/>
 </g>
</svg>
