<?xml version="1.0" encoding="UTF-8"?>
<!DOCTYPE svg PUBLIC "-//W3C//DTD SVG 1.1//EN" "http://www.w3.org/Graphics/SVG/1.1/DTD/svg11.dtd">
<!-- Creator: CorelDRAW 2018 (64 Bit Versão de avaliação) -->
<svg xmlns="http://www.w3.org/2000/svg" xml:space="preserve" width="46px" height="41px" version="1.1" shape-rendering="geometricPrecision" text-rendering="geometricPrecision" image-rendering="optimizeQuality" fill-rule="evenodd" clip-rule="evenodd"
viewBox="0 0 1.69 1.5"
 xmlns:xlink="http://www.w3.org/1999/xlink">
 <g id="Camada_x0020_1">
  <metadata id="CorelCorpID_0Corel-Layer"/>
  <g id="_2737646472976">
   <path fill="#373435" d="M0.84 0.1c0.05,0 0.11,0 0.14,0.03 0.03,0.03 0.08,0.12 0.11,0.16 0.02,0.03 0.13,0.23 0.15,0.28 0.02,0.03 0.04,0.07 0.06,0.1 0.05,0.08 0.09,0.15 0.13,0.22l0.09 0.17c0.04,0.07 0.08,0.1 0.06,0.2 0,0.05 -0.02,0.08 -0.06,0.1 -0.01,0.01 -0.02,0.02 -0.03,0.02 -0.01,0.01 -0.01,0.01 -0.02,0.02 -0.02,0.01 -0.04,0.01 -0.07,0.01l-0.87 0c-0.04,0 -0.23,0.01 -0.26,0 -0.02,-0.01 -0.03,-0.02 -0.05,-0.03l-0.03 -0.02c0,0 -0.01,0 -0.01,-0.01 -0.01,0 -0.03,-0.06 -0.04,-0.07 -0.01,-0.04 -0.01,-0.11 0.01,-0.14 0.02,-0.04 0.04,-0.08 0.07,-0.11 0.05,-0.09 0.22,-0.38 0.25,-0.44 0.02,-0.04 0.04,-0.08 0.06,-0.11 0.04,-0.06 0.04,-0.05 0.07,-0.11 0.02,-0.04 0.04,-0.07 0.06,-0.11 0.04,-0.08 0.07,-0.15 0.18,-0.16zm-0.01 -0.1c-0.08,0.01 -0.12,0.04 -0.17,0.08 -0.02,0.02 0,0.02 -0.02,0.03 -0.03,0.04 -0.08,0.14 -0.11,0.18 -0.03,0.05 -0.05,0.08 -0.07,0.13 -0.09,0.15 -0.17,0.29 -0.26,0.43 -0.02,0.03 -0.08,0.15 -0.1,0.19 -0.01,0.01 -0.01,0.03 -0.02,0.03 -0.02,0.04 -0.03,0.05 -0.04,0.11 -0.01,0.03 0,0.09 0.01,0.13 0,0.01 0,0.01 0.01,0.02 0,0.01 0,0.02 0.02,0.05 0.02,0.02 0.01,0.02 0.02,0.03 0.02,0.01 0.04,0.03 0.05,0.04 0.01,0.02 0.01,0.02 0.03,0.02 0.05,0.02 0.07,0.03 0.12,0.03l0.99 0c0.12,0 0.15,0.01 0.26,-0.03 0.03,-0.02 0.03,-0.02 0.05,-0.05 0.04,-0.04 0.04,-0.06 0.06,-0.09 0,-0.01 0.01,-0.02 0.01,-0.03 0.02,-0.05 0.02,-0.13 0,-0.17 -0.01,-0.03 -0.02,-0.05 -0.03,-0.07l-0.11 -0.19c-0.05,-0.08 -0.1,-0.16 -0.15,-0.24 -0.02,-0.03 -0.06,-0.1 -0.07,-0.13 -0.01,-0.02 -0.02,-0.04 -0.03,-0.06 -0.02,-0.02 -0.02,-0.03 -0.02,-0.04 -0.01,-0.01 -0.01,-0.02 -0.02,-0.03 -0.04,-0.05 -0.14,-0.24 -0.17,-0.27 0,-0.01 -0.01,-0.02 -0.02,-0.02 -0.02,-0.02 -0.04,-0.04 -0.06,-0.05l-0.07 -0.02c-0.02,-0.01 -0.07,-0.01 -0.09,-0.01z"/>
   <path fill="#373435" d="M0.85 0.48c-0.06,0.01 -0.05,0.06 -0.05,0.11l0 0.11c0,0.01 0,0.03 0,0.04 0.01,0.05 0.01,0.12 0.01,0.15 0.01,0.03 0,0.08 0.03,0.09 0.01,0 0.02,0.01 0.04,0 0.02,0 0.01,-0.03 0.02,-0.05 0.01,-0.02 0.01,-0.05 0.01,-0.07 0,-0.05 0.01,-0.1 0.01,-0.15 0,-0.05 0,-0.1 0,-0.16 0,-0.02 0,-0.04 -0.02,-0.06 -0.01,-0.01 -0.03,-0.02 -0.05,-0.01z"/>
   <path fill="#373435" d="M0.87 1.22c0.02,-0.01 0.06,-0.04 0.06,-0.07 0,-0.04 -0.04,-0.06 -0.08,-0.06 -0.07,0.01 -0.08,0.09 -0.03,0.11 0,0.01 0.01,0.01 0.02,0.01 0.03,0 0.01,0 0.03,0.01z"/>
   <polygon fill="#373435" points="0,1.37 0,1.37 "/>
  </g>
 </g>
</svg>
